<svg xmlns="http://www.w3.org/2000/svg" width="745" height="84.14" viewBox="0 0 745 84.14"><path d="M-148.24-28.3v1.7h-14.9v11.9h12.9V-13h-12.9V0h-2.06V-28.3ZM-144.48,0V-19.9h1a.705.705,0,0,1,.49.14.7.7,0,0,1,.17.48l.16,4.2a9.466,9.466,0,0,1,2.56-3.79,5.848,5.848,0,0,1,3.94-1.37,6.837,6.837,0,0,1,1.66.19,6.365,6.365,0,0,1,1.44.55l-.26,1.32a.362.362,0,0,1-.4.32,1.087,1.087,0,0,1-.34-.08q-.22-.08-.55-.18a6.57,6.57,0,0,0-.81-.18,6.748,6.748,0,0,0-1.1-.08,5.121,5.121,0,0,0-3.71,1.4,10.006,10.006,0,0,0-2.35,4.04V0Zm23.46-20.22a9.571,9.571,0,0,1,3.83.73,7.806,7.806,0,0,1,2.85,2.07,9.17,9.17,0,0,1,1.77,3.23,13.731,13.731,0,0,1,.61,4.23,13.636,13.636,0,0,1-.61,4.22,9.182,9.182,0,0,1-1.77,3.22,7.707,7.707,0,0,1-2.85,2.06,9.687,9.687,0,0,1-3.83.72,9.687,9.687,0,0,1-3.83-.72,7.8,7.8,0,0,1-2.86-2.06,9.1,9.1,0,0,1-1.78-3.22,13.636,13.636,0,0,1-.61-4.22,13.732,13.732,0,0,1,.61-4.23,9.084,9.084,0,0,1,1.78-3.23,7.9,7.9,0,0,1,2.86-2.07A9.571,9.571,0,0,1-121.02-20.22Zm0,18.98a7.4,7.4,0,0,0,3.11-.61,5.888,5.888,0,0,0,2.22-1.75,7.718,7.718,0,0,0,1.33-2.75,13.7,13.7,0,0,0,.44-3.61,13.726,13.726,0,0,0-.44-3.6,7.816,7.816,0,0,0-1.33-2.77,5.939,5.939,0,0,0-2.22-1.77,7.293,7.293,0,0,0-3.11-.62,7.293,7.293,0,0,0-3.11.62,5.939,5.939,0,0,0-2.22,1.77,7.945,7.945,0,0,0-1.34,2.77,13.437,13.437,0,0,0-.45,3.6,13.408,13.408,0,0,0,.45,3.61,7.844,7.844,0,0,0,1.34,2.75,5.888,5.888,0,0,0,2.22,1.75A7.4,7.4,0,0,0-121.02-1.24ZM-106.96,0V-19.9h1.04a.541.541,0,0,1,.6.5l.18,3a11.166,11.166,0,0,1,3.17-2.77,7.884,7.884,0,0,1,4.03-1.05,7.477,7.477,0,0,1,2.89.52,5.307,5.307,0,0,1,2.07,1.5,6.64,6.64,0,0,1,1.24,2.36,10.707,10.707,0,0,1,.42,3.12V0h-1.9V-12.72a6.817,6.817,0,0,0-1.28-4.39,4.732,4.732,0,0,0-3.92-1.59,6.938,6.938,0,0,0-3.64,1.01,10.573,10.573,0,0,0-3,2.77V0Zm27.08.32A4.28,4.28,0,0,1-83.03-.8a4.689,4.689,0,0,1-1.13-3.46v-13.6h-2.86a.534.534,0,0,1-.36-.12.423.423,0,0,1-.14-.34v-.74l3.4-.24.48-7.12a.55.55,0,0,1,.15-.32.455.455,0,0,1,.35-.14h.9v7.6h6.26v1.42h-6.26v13.5a4.216,4.216,0,0,0,.21,1.41,2.632,2.632,0,0,0,.58.97,2.274,2.274,0,0,0,.87.56,3.165,3.165,0,0,0,1.08.18,3.306,3.306,0,0,0,1.24-.21,5.141,5.141,0,0,0,.9-.46,5.77,5.77,0,0,0,.62-.46.681.681,0,0,1,.38-.21.434.434,0,0,1,.32.2l.52.84A5.546,5.546,0,0,1-77.45-.19,6.02,6.02,0,0,1-79.88.32Zm7.58-13H-63v1.62h-9.3Zm22.04-7.54a8.2,8.2,0,0,1,3.11.58,6.989,6.989,0,0,1,2.48,1.69,7.794,7.794,0,0,1,1.64,2.73,10.837,10.837,0,0,1,.59,3.72,1,1,0,0,1-.13.6.5.5,0,0,1-.41.16H-57.36v.38a13.5,13.5,0,0,0,.52,3.94,8.072,8.072,0,0,0,1.48,2.85,6.1,6.1,0,0,0,2.32,1.73A7.676,7.676,0,0,0-50-1.26a9.1,9.1,0,0,0,2.6-.33,9.691,9.691,0,0,0,1.85-.74,10.143,10.143,0,0,0,1.19-.74,1.35,1.35,0,0,1,.64-.33.459.459,0,0,1,.4.2l.52.64a5.427,5.427,0,0,1-1.27,1.12,9.064,9.064,0,0,1-1.76.89,12.823,12.823,0,0,1-2.08.59,11.444,11.444,0,0,1-2.23.22,9.463,9.463,0,0,1-3.72-.71,7.886,7.886,0,0,1-2.88-2.07,9.424,9.424,0,0,1-1.85-3.33,14.378,14.378,0,0,1-.65-4.51,12.3,12.3,0,0,1,.61-3.95,9.046,9.046,0,0,1,1.76-3.12,8.02,8.02,0,0,1,2.82-2.05A9.264,9.264,0,0,1-50.26-20.22Zm.02,1.42a7.489,7.489,0,0,0-2.76.48,6.039,6.039,0,0,0-2.11,1.38,7.039,7.039,0,0,0-1.44,2.16,9.833,9.833,0,0,0-.73,2.82h13.12a8.736,8.736,0,0,0-.44-2.87,6.136,6.136,0,0,0-1.24-2.15,5.367,5.367,0,0,0-1.92-1.35A6.348,6.348,0,0,0-50.24-18.8ZM-37.32,0V-19.9h1.04a.541.541,0,0,1,.6.5l.18,3a11.166,11.166,0,0,1,3.17-2.77,7.884,7.884,0,0,1,4.03-1.05,7.477,7.477,0,0,1,2.89.52,5.307,5.307,0,0,1,2.07,1.5,6.64,6.64,0,0,1,1.24,2.36,10.707,10.707,0,0,1,.42,3.12V0h-1.9V-12.72a6.817,6.817,0,0,0-1.28-4.39,4.732,4.732,0,0,0-3.92-1.59,6.938,6.938,0,0,0-3.64,1.01,10.573,10.573,0,0,0-3,2.77V0ZM-1.58,0a.538.538,0,0,1-.58-.52l-.2-3.14A10.545,10.545,0,0,1-5.45-.8,7.578,7.578,0,0,1-9.42.26a6.928,6.928,0,0,1-5.71-2.54q-2.05-2.54-2.05-7.62a14.032,14.032,0,0,1,.57-4.07,9.665,9.665,0,0,1,1.68-3.28,7.983,7.983,0,0,1,2.72-2.19,8.232,8.232,0,0,1,3.71-.8,7.654,7.654,0,0,1,3.5.75A7.33,7.33,0,0,1-2.44-17.3V-29.1H-.52V0Zm-7.3-1.28A6.52,6.52,0,0,0-5.3-2.3,10.147,10.147,0,0,0-2.44-5.14v-10.5a7,7,0,0,0-2.55-2.4,6.907,6.907,0,0,0-3.15-.7,6.983,6.983,0,0,0-3.08.64,6.064,6.064,0,0,0-2.21,1.81,8.155,8.155,0,0,0-1.34,2.8,13.467,13.467,0,0,0-.45,3.59q0,4.44,1.64,6.53A5.622,5.622,0,0,0-8.88-1.28ZM31.8-28.3v1.7H16.9v11.44H29.3v1.66H16.9V-1.7H31.8V0H14.84V-28.3ZM37.52,0V-19.9h1.04a.541.541,0,0,1,.6.5l.18,3a11.166,11.166,0,0,1,3.17-2.77,7.884,7.884,0,0,1,4.03-1.05,7.477,7.477,0,0,1,2.89.52,5.307,5.307,0,0,1,2.07,1.5,6.64,6.64,0,0,1,1.24,2.36,10.707,10.707,0,0,1,.42,3.12V0h-1.9V-12.72a6.817,6.817,0,0,0-1.28-4.39,4.732,4.732,0,0,0-3.92-1.59,6.938,6.938,0,0,0-3.64,1.01,10.573,10.573,0,0,0-3,2.77V0Zm28.2-20.24a8.67,8.67,0,0,1,2.41.32,7.228,7.228,0,0,1,1.99.9h5.1v.66q0,.5-.56.54l-3.02.22a5.806,5.806,0,0,1,.86,1.71,6.7,6.7,0,0,1,.3,2.03,6.358,6.358,0,0,1-.52,2.61,5.807,5.807,0,0,1-1.45,2A6.623,6.623,0,0,1,68.6-7.96a8.585,8.585,0,0,1-2.88.46,8.9,8.9,0,0,1-3.12-.52,4.132,4.132,0,0,0-1.32,1.14A2.189,2.189,0,0,0,60.8-5.6a1.564,1.564,0,0,0,.6,1.32,3.924,3.924,0,0,0,1.59.67,14.2,14.2,0,0,0,2.26.27q1.27.06,2.58.13t2.58.25a8.237,8.237,0,0,1,2.26.63,3.988,3.988,0,0,1,1.59,1.26,3.528,3.528,0,0,1,.6,2.15,4.915,4.915,0,0,1-.62,2.38,6.3,6.3,0,0,1-1.79,2.02,9.447,9.447,0,0,1-2.83,1.41,12.2,12.2,0,0,1-3.72.53,14.086,14.086,0,0,1-3.68-.43,8.758,8.758,0,0,1-2.65-1.16,5.081,5.081,0,0,1-1.61-1.69,4.1,4.1,0,0,1-.54-2.04A3.9,3.9,0,0,1,58.46-.62a6.705,6.705,0,0,1,2.86-1.76,3.756,3.756,0,0,1-1.59-.98,2.527,2.527,0,0,1-.59-1.78,2.677,2.677,0,0,1,.16-.88,3.635,3.635,0,0,1,.48-.91,5.076,5.076,0,0,1,.77-.85A5.388,5.388,0,0,1,61.6-8.5a5.93,5.93,0,0,1-2.21-2.18,6.218,6.218,0,0,1-.79-3.18,6.465,6.465,0,0,1,.51-2.61,5.8,5.8,0,0,1,1.44-2.01,6.5,6.5,0,0,1,2.25-1.3A8.825,8.825,0,0,1,65.72-20.24ZM73.1,1.34a2.236,2.236,0,0,0-.49-1.51,3.241,3.241,0,0,0-1.31-.89,7.785,7.785,0,0,0-1.89-.45q-1.07-.13-2.24-.19l-2.35-.12a17.919,17.919,0,0,1-2.2-.24,9.55,9.55,0,0,0-1.41.69,5.128,5.128,0,0,0-1.11.88A3.824,3.824,0,0,0,59.38.59a3.163,3.163,0,0,0-.26,1.29,3.111,3.111,0,0,0,.45,1.63,3.973,3.973,0,0,0,1.32,1.3,7.364,7.364,0,0,0,2.13.87,11.836,11.836,0,0,0,2.9.32,11.238,11.238,0,0,0,2.83-.34,7.882,7.882,0,0,0,2.28-.96,4.893,4.893,0,0,0,1.52-1.48A3.421,3.421,0,0,0,73.1,1.34ZM65.72-8.8A6.542,6.542,0,0,0,68-9.17a4.732,4.732,0,0,0,1.68-1.03,4.3,4.3,0,0,0,1.03-1.58,5.7,5.7,0,0,0,.35-2.04,5.634,5.634,0,0,0-.36-2.05,4.332,4.332,0,0,0-1.05-1.59,4.735,4.735,0,0,0-1.68-1.02,6.557,6.557,0,0,0-2.25-.36,6.643,6.643,0,0,0-2.26.36,4.72,4.72,0,0,0-1.69,1.02,4.332,4.332,0,0,0-1.05,1.59,5.634,5.634,0,0,0-.36,2.05,5.555,5.555,0,0,0,.36,2.04,4.349,4.349,0,0,0,1.05,1.58,4.836,4.836,0,0,0,1.69,1.03A6.48,6.48,0,0,0,65.72-8.8ZM81.8-19.9V0H79.9V-19.9Zm.84-6.86a1.518,1.518,0,0,1-.15.67,2.01,2.01,0,0,1-.39.55,1.81,1.81,0,0,1-.56.38,1.678,1.678,0,0,1-.68.14,1.678,1.678,0,0,1-.68-.14,1.81,1.81,0,0,1-.56-.38,1.846,1.846,0,0,1-.38-.55,1.609,1.609,0,0,1-.14-.67,1.749,1.749,0,0,1,.14-.69,1.779,1.779,0,0,1,.38-.57,1.81,1.81,0,0,1,.56-.38,1.678,1.678,0,0,1,.68-.14,1.678,1.678,0,0,1,.68.14,1.81,1.81,0,0,1,.56.38,1.922,1.922,0,0,1,.39.57A1.649,1.649,0,0,1,82.64-26.76ZM88.84,0V-19.9h1.04a.541.541,0,0,1,.6.5l.18,3a11.166,11.166,0,0,1,3.17-2.77,7.884,7.884,0,0,1,4.03-1.05,7.477,7.477,0,0,1,2.89.52,5.307,5.307,0,0,1,2.07,1.5,6.64,6.64,0,0,1,1.24,2.36,10.707,10.707,0,0,1,.42,3.12V0h-1.9V-12.72a6.817,6.817,0,0,0-1.28-4.39,4.732,4.732,0,0,0-3.92-1.59,6.938,6.938,0,0,0-3.64,1.01,10.573,10.573,0,0,0-3,2.77V0Zm29.14-20.22a8.2,8.2,0,0,1,3.11.58,6.989,6.989,0,0,1,2.48,1.69,7.794,7.794,0,0,1,1.64,2.73,10.837,10.837,0,0,1,.59,3.72,1,1,0,0,1-.13.6.5.5,0,0,1-.41.16H110.88v.38a13.5,13.5,0,0,0,.52,3.94,8.072,8.072,0,0,0,1.48,2.85,6.1,6.1,0,0,0,2.32,1.73,7.676,7.676,0,0,0,3.04.58,9.1,9.1,0,0,0,2.6-.33,9.691,9.691,0,0,0,1.85-.74,10.143,10.143,0,0,0,1.19-.74,1.35,1.35,0,0,1,.64-.33.459.459,0,0,1,.4.2l.52.64a5.427,5.427,0,0,1-1.27,1.12,9.064,9.064,0,0,1-1.76.89,12.823,12.823,0,0,1-2.08.59,11.444,11.444,0,0,1-2.23.22,9.463,9.463,0,0,1-3.72-.71,7.886,7.886,0,0,1-2.88-2.07,9.424,9.424,0,0,1-1.85-3.33,14.378,14.378,0,0,1-.65-4.51,12.3,12.3,0,0,1,.61-3.95,9.046,9.046,0,0,1,1.76-3.12,8.02,8.02,0,0,1,2.82-2.05A9.264,9.264,0,0,1,117.98-20.22ZM118-18.8a7.489,7.489,0,0,0-2.76.48,6.039,6.039,0,0,0-2.11,1.38,7.04,7.04,0,0,0-1.44,2.16,9.833,9.833,0,0,0-.73,2.82h13.12a8.736,8.736,0,0,0-.44-2.87,6.136,6.136,0,0,0-1.24-2.15,5.367,5.367,0,0,0-1.92-1.35A6.348,6.348,0,0,0,118-18.8Zm20.42-1.42a8.2,8.2,0,0,1,3.11.58,6.989,6.989,0,0,1,2.48,1.69,7.794,7.794,0,0,1,1.64,2.73,10.837,10.837,0,0,1,.59,3.72,1,1,0,0,1-.13.6.5.5,0,0,1-.41.16H131.32v.38a13.5,13.5,0,0,0,.52,3.94,8.072,8.072,0,0,0,1.48,2.85,6.1,6.1,0,0,0,2.32,1.73,7.676,7.676,0,0,0,3.04.58,9.1,9.1,0,0,0,2.6-.33,9.691,9.691,0,0,0,1.85-.74,10.143,10.143,0,0,0,1.19-.74,1.35,1.35,0,0,1,.64-.33.459.459,0,0,1,.4.2l.52.64a5.427,5.427,0,0,1-1.27,1.12,9.064,9.064,0,0,1-1.76.89,12.823,12.823,0,0,1-2.08.59,11.444,11.444,0,0,1-2.23.22,9.463,9.463,0,0,1-3.72-.71,7.886,7.886,0,0,1-2.88-2.07,9.424,9.424,0,0,1-1.85-3.33,14.378,14.378,0,0,1-.65-4.51,12.3,12.3,0,0,1,.61-3.95,9.045,9.045,0,0,1,1.76-3.12,8.02,8.02,0,0,1,2.82-2.05A9.264,9.264,0,0,1,138.42-20.22Zm.02,1.42a7.489,7.489,0,0,0-2.76.48,6.039,6.039,0,0,0-2.11,1.38,7.039,7.039,0,0,0-1.44,2.16,9.833,9.833,0,0,0-.73,2.82h13.12a8.736,8.736,0,0,0-.44-2.87,6.136,6.136,0,0,0-1.24-2.15,5.368,5.368,0,0,0-1.92-1.35A6.348,6.348,0,0,0,138.44-18.8ZM151.36,0V-19.9h1a.705.705,0,0,1,.49.14.7.7,0,0,1,.17.48l.16,4.2a9.466,9.466,0,0,1,2.56-3.79,5.848,5.848,0,0,1,3.94-1.37,6.837,6.837,0,0,1,1.66.19,6.365,6.365,0,0,1,1.44.55l-.26,1.32a.362.362,0,0,1-.4.32,1.087,1.087,0,0,1-.34-.08q-.22-.08-.55-.18a6.57,6.57,0,0,0-.81-.18,6.748,6.748,0,0,0-1.1-.08,5.121,5.121,0,0,0-3.71,1.4,10.006,10.006,0,0,0-2.35,4.04V0ZM163.6-1.54a1.872,1.872,0,0,1,.14-.72,1.786,1.786,0,0,1,.39-.59,1.959,1.959,0,0,1,.58-.4,1.744,1.744,0,0,1,.73-.15,1.764,1.764,0,0,1,.72.15,1.923,1.923,0,0,1,.59.4,1.922,1.922,0,0,1,.4.59,1.764,1.764,0,0,1,.15.72,1.744,1.744,0,0,1-.15.73,1.959,1.959,0,0,1-.4.58,1.786,1.786,0,0,1-.59.39,1.872,1.872,0,0,1-.72.14,1.78,1.78,0,0,1-1.31-.53A1.78,1.78,0,0,1,163.6-1.54ZM-354.49,19.7v1.7h-14.9V33.3h12.9V35h-12.9V48h-2.06V19.7Zm5.18,8.4V40.82a6.817,6.817,0,0,0,1.28,4.39,4.707,4.707,0,0,0,3.9,1.59,7.008,7.008,0,0,0,3.62-.99,10.538,10.538,0,0,0,3.02-2.75V28.1h1.92V48h-1.06q-.56,0-.58-.52l-.18-2.96a11.28,11.28,0,0,1-3.19,2.76,7.944,7.944,0,0,1-4.03,1.04,7.459,7.459,0,0,1-2.9-.52,5.321,5.321,0,0,1-2.06-1.5,6.64,6.64,0,0,1-1.24-2.36,10.707,10.707,0,0,1-.42-3.12V28.1Zm22.68-9.2V48h-1.9V18.9Zm9.5,0V48h-1.9V18.9Zm5.8,16.42h9.3v1.62h-9.3Zm25.5-4.76a.462.462,0,0,1-.44.28,1.085,1.085,0,0,1-.57-.25,9.1,9.1,0,0,0-.92-.56,7.445,7.445,0,0,0-1.4-.56,7.119,7.119,0,0,0-2.03-.25,5.957,5.957,0,0,0-1.97.31,4.887,4.887,0,0,0-1.52.83,3.775,3.775,0,0,0-.98,1.21,3.164,3.164,0,0,0-.35,1.45,2.472,2.472,0,0,0,.48,1.56,4.134,4.134,0,0,0,1.26,1.06,9.617,9.617,0,0,0,1.77.76q.99.32,2.03.64t2.03.71a7.642,7.642,0,0,1,1.77.97,4.589,4.589,0,0,1,1.26,1.42,4.051,4.051,0,0,1,.48,2.04,6.19,6.19,0,0,1-.47,2.42,5.5,5.5,0,0,1-1.36,1.94,6.52,6.52,0,0,1-2.19,1.3,8.509,8.509,0,0,1-2.96.48,8.929,8.929,0,0,1-3.62-.67,10.163,10.163,0,0,1-2.72-1.75l.46-.68a.776.776,0,0,1,.22-.24.61.61,0,0,1,.34-.08,1.1,1.1,0,0,1,.64.32,7.993,7.993,0,0,0,.99.69,8.193,8.193,0,0,0,1.52.69,6.843,6.843,0,0,0,2.25.32,6.466,6.466,0,0,0,2.22-.35,4.616,4.616,0,0,0,1.6-.95,3.958,3.958,0,0,0,.97-1.41,4.489,4.489,0,0,0,.33-1.71,2.749,2.749,0,0,0-.48-1.66,4.115,4.115,0,0,0-1.26-1.12,8.806,8.806,0,0,0-1.77-.78q-.99-.32-2.04-.64t-2.04-.7a7.378,7.378,0,0,1-1.77-.96,4.629,4.629,0,0,1-1.26-1.41,4.082,4.082,0,0,1-.48-2.07,4.747,4.747,0,0,1,.46-2.04,5.186,5.186,0,0,1,1.31-1.72,6.443,6.443,0,0,1,2.07-1.18,8.036,8.036,0,0,1,2.74-.44,9.3,9.3,0,0,1,3.23.52,7.831,7.831,0,0,1,2.59,1.6Zm11.68,17.76a4.28,4.28,0,0,1-3.15-1.12,4.689,4.689,0,0,1-1.13-3.46V30.14h-2.86a.534.534,0,0,1-.36-.12.423.423,0,0,1-.14-.34v-.74l3.4-.24.48-7.12a.55.55,0,0,1,.15-.32.455.455,0,0,1,.35-.14h.9v7.6h6.26v1.42h-6.26v13.5a4.217,4.217,0,0,0,.21,1.41,2.631,2.631,0,0,0,.58.97,2.274,2.274,0,0,0,.87.56,3.165,3.165,0,0,0,1.08.18,3.306,3.306,0,0,0,1.24-.21,5.14,5.14,0,0,0,.9-.46,5.772,5.772,0,0,0,.62-.46.681.681,0,0,1,.38-.21.434.434,0,0,1,.32.2l.52.84a5.546,5.546,0,0,1-1.93,1.35A6.02,6.02,0,0,1-274.15,48.32Zm21.52-.32a.685.685,0,0,1-.74-.56l-.28-2.54a20.876,20.876,0,0,1-1.63,1.44,9.777,9.777,0,0,1-1.69,1.08,8.325,8.325,0,0,1-1.9.67,10.189,10.189,0,0,1-2.24.23,6.6,6.6,0,0,1-1.98-.3,4.886,4.886,0,0,1-1.7-.92,4.515,4.515,0,0,1-1.19-1.59,5.5,5.5,0,0,1-.45-2.33,4.137,4.137,0,0,1,.72-2.34,5.914,5.914,0,0,1,2.25-1.88,14.847,14.847,0,0,1,3.94-1.28,34.265,34.265,0,0,1,5.79-.56V35.04a6.665,6.665,0,0,0-1.19-4.25,4.247,4.247,0,0,0-3.53-1.49,6.663,6.663,0,0,0-2.45.4,8.676,8.676,0,0,0-1.71.88,10.783,10.783,0,0,0-1.14.88,1.235,1.235,0,0,1-.74.4.646.646,0,0,1-.6-.36l-.34-.58a11.565,11.565,0,0,1,3.28-2.36,9.143,9.143,0,0,1,3.9-.8,7.115,7.115,0,0,1,2.8.51,5.173,5.173,0,0,1,1.99,1.46,6.384,6.384,0,0,1,1.19,2.3,10.577,10.577,0,0,1,.4,3.01V48Zm-8-1.06a8.525,8.525,0,0,0,2.13-.25,7.892,7.892,0,0,0,1.8-.7,8.788,8.788,0,0,0,1.55-1.07q.72-.62,1.42-1.34V38.4a35.456,35.456,0,0,0-4.89.43,14.1,14.1,0,0,0-3.38.95,4.956,4.956,0,0,0-1.96,1.43,3.044,3.044,0,0,0-.63,1.89,4.172,4.172,0,0,0,.33,1.73,3.442,3.442,0,0,0,.87,1.2,3.413,3.413,0,0,0,1.26.69A5.1,5.1,0,0,0-260.63,46.94Zm27.86-16.18a2.066,2.066,0,0,1-.19.17.4.4,0,0,1-.25.07,1.043,1.043,0,0,1-.55-.27,7.424,7.424,0,0,0-.93-.59,7.844,7.844,0,0,0-1.45-.59,7.183,7.183,0,0,0-2.11-.27,7.242,7.242,0,0,0-3.05.61,6.059,6.059,0,0,0-2.24,1.75,8.022,8.022,0,0,0-1.39,2.76,12.8,12.8,0,0,0-.48,3.64,12.864,12.864,0,0,0,.49,3.72,7.923,7.923,0,0,0,1.39,2.73,5.919,5.919,0,0,0,2.18,1.69,6.8,6.8,0,0,0,2.84.58,7.359,7.359,0,0,0,2.41-.34,7.854,7.854,0,0,0,1.6-.74,7.214,7.214,0,0,0,1-.74,1.034,1.034,0,0,1,.59-.34.459.459,0,0,1,.4.2l.52.64a5.817,5.817,0,0,1-1.16,1.12,7.866,7.866,0,0,1-1.58.9,9.688,9.688,0,0,1-1.91.59,10.74,10.74,0,0,1-2.15.21,8.531,8.531,0,0,1-3.47-.69,7.522,7.522,0,0,1-2.7-2,9.357,9.357,0,0,1-1.76-3.21,13.7,13.7,0,0,1-.63-4.32,13.632,13.632,0,0,1,.6-4.16A9.36,9.36,0,0,1-245,30.64a7.853,7.853,0,0,1,2.82-2.11,9.261,9.261,0,0,1,3.83-.75,9.02,9.02,0,0,1,3.45.62,8.456,8.456,0,0,1,2.63,1.68Zm7.22-11.86V36.64h.92a1.729,1.729,0,0,0,.53-.08,1.461,1.461,0,0,0,.55-.38l7.98-7.58a2.422,2.422,0,0,1,.45-.36,1.12,1.12,0,0,1,.59-.14h1.68l-8.78,8.34q-.2.2-.38.37a1.916,1.916,0,0,1-.4.29,2.055,2.055,0,0,1,.54.38q.22.22.46.48L-212.19,48h-1.66a1.1,1.1,0,0,1-.5-.11,1.558,1.558,0,0,1-.44-.35l-8.36-8.96a2.167,2.167,0,0,0-.62-.49,2.216,2.216,0,0,0-.88-.13h-.9V48h-1.92V18.9Zm36,19.66a13.624,13.624,0,0,1-.59,4.2,8.57,8.57,0,0,1-1.68,3.06,6.917,6.917,0,0,1-2.66,1.87,9.407,9.407,0,0,1-3.53.63,12.084,12.084,0,0,1-1.82-.14,13.371,13.371,0,0,1-1.9-.44q.04-.28.07-.56t.05-.56a.787.787,0,0,1,.15-.32.47.47,0,0,1,.39-.14,1.634,1.634,0,0,1,.43.07q.25.07.6.15t.8.15a6.914,6.914,0,0,0,1.05.07,7.431,7.431,0,0,0,2.74-.48,5.274,5.274,0,0,0,2.08-1.47,6.65,6.65,0,0,0,1.31-2.5,12.49,12.49,0,0,0,.45-3.55V19.7h2.06ZM-169.41,48a.685.685,0,0,1-.74-.56l-.28-2.54a20.876,20.876,0,0,1-1.63,1.44,9.777,9.777,0,0,1-1.69,1.08,8.325,8.325,0,0,1-1.9.67,10.188,10.188,0,0,1-2.24.23,6.6,6.6,0,0,1-1.98-.3,4.886,4.886,0,0,1-1.7-.92,4.515,4.515,0,0,1-1.19-1.59,5.5,5.5,0,0,1-.45-2.33,4.136,4.136,0,0,1,.72-2.34,5.914,5.914,0,0,1,2.25-1.88,14.846,14.846,0,0,1,3.94-1.28,34.265,34.265,0,0,1,5.79-.56V35.04a6.665,6.665,0,0,0-1.19-4.25,4.247,4.247,0,0,0-3.53-1.49,6.663,6.663,0,0,0-2.45.4,8.676,8.676,0,0,0-1.71.88,10.78,10.78,0,0,0-1.14.88,1.235,1.235,0,0,1-.74.4.646.646,0,0,1-.6-.36l-.34-.58a11.564,11.564,0,0,1,3.28-2.36,9.143,9.143,0,0,1,3.9-.8,7.115,7.115,0,0,1,2.8.51,5.173,5.173,0,0,1,1.99,1.46,6.384,6.384,0,0,1,1.19,2.3,10.577,10.577,0,0,1,.4,3.01V48Zm-8-1.06a8.525,8.525,0,0,0,2.13-.25,7.892,7.892,0,0,0,1.8-.7,8.789,8.789,0,0,0,1.55-1.07q.72-.62,1.42-1.34V38.4a35.457,35.457,0,0,0-4.89.43,14.1,14.1,0,0,0-3.38.95,4.956,4.956,0,0,0-1.96,1.43,3.044,3.044,0,0,0-.63,1.89,4.172,4.172,0,0,0,.33,1.73,3.442,3.442,0,0,0,.87,1.2,3.413,3.413,0,0,0,1.26.69A5.1,5.1,0,0,0-177.41,46.94Zm21.6,1.06h-1.68l-8.4-19.9h1.5a.655.655,0,0,1,.45.15.964.964,0,0,1,.25.33l6.56,15.7a5.289,5.289,0,0,1,.3.88l.2.84q.1-.42.21-.85a6.655,6.655,0,0,1,.29-.87l6.6-15.7a.9.9,0,0,1,.27-.35.655.655,0,0,1,.41-.13h1.44Zm24.84,0a.685.685,0,0,1-.74-.56l-.28-2.54a20.876,20.876,0,0,1-1.63,1.44,9.777,9.777,0,0,1-1.69,1.08,8.325,8.325,0,0,1-1.9.67,10.188,10.188,0,0,1-2.24.23,6.6,6.6,0,0,1-1.98-.3,4.886,4.886,0,0,1-1.7-.92,4.515,4.515,0,0,1-1.19-1.59,5.5,5.5,0,0,1-.45-2.33,4.136,4.136,0,0,1,.72-2.34,5.914,5.914,0,0,1,2.25-1.88,14.846,14.846,0,0,1,3.94-1.28,34.265,34.265,0,0,1,5.79-.56V35.04a6.665,6.665,0,0,0-1.19-4.25,4.247,4.247,0,0,0-3.53-1.49,6.663,6.663,0,0,0-2.45.4,8.676,8.676,0,0,0-1.71.88,10.78,10.78,0,0,0-1.14.88,1.235,1.235,0,0,1-.74.4.646.646,0,0,1-.6-.36l-.34-.58a11.564,11.564,0,0,1,3.28-2.36,9.143,9.143,0,0,1,3.9-.8,7.115,7.115,0,0,1,2.8.51,5.173,5.173,0,0,1,1.99,1.46,6.384,6.384,0,0,1,1.19,2.3,10.577,10.577,0,0,1,.4,3.01V48Zm-8-1.06a8.525,8.525,0,0,0,2.13-.25,7.892,7.892,0,0,0,1.8-.7,8.789,8.789,0,0,0,1.55-1.07q.72-.62,1.42-1.34V38.4a35.457,35.457,0,0,0-4.89.43,14.1,14.1,0,0,0-3.38.95,4.956,4.956,0,0,0-1.96,1.43,3.044,3.044,0,0,0-.63,1.89,4.172,4.172,0,0,0,.33,1.73,3.442,3.442,0,0,0,.87,1.2,3.413,3.413,0,0,0,1.26.69A5.1,5.1,0,0,0-138.97,46.94Zm29.4-23.8a.564.564,0,0,1-.52.34,1.151,1.151,0,0,1-.67-.37,8.743,8.743,0,0,0-1.11-.82,8.776,8.776,0,0,0-1.75-.83,7.668,7.668,0,0,0-2.59-.38,7.675,7.675,0,0,0-2.71.44,5.655,5.655,0,0,0-1.96,1.2,5.107,5.107,0,0,0-1.2,1.76,5.482,5.482,0,0,0-.41,2.1,4.292,4.292,0,0,0,.61,2.38,5.5,5.5,0,0,0,1.61,1.6A10.419,10.419,0,0,0-118,31.67q1.27.45,2.61.89t2.61.97a9.41,9.41,0,0,1,2.27,1.33,6.1,6.1,0,0,1,1.61,1.97,6.248,6.248,0,0,1,.61,2.91,9.168,9.168,0,0,1-.61,3.35,7.817,7.817,0,0,1-1.77,2.73,8.31,8.31,0,0,1-2.84,1.83,10.3,10.3,0,0,1-3.84.67,10.851,10.851,0,0,1-4.82-.99,11.357,11.357,0,0,1-3.54-2.71l.56-.88a.7.7,0,0,1,.56-.3.8.8,0,0,1,.46.24q.28.24.68.59t.96.76a7.952,7.952,0,0,0,1.3.76,9.2,9.2,0,0,0,1.7.59,9.015,9.015,0,0,0,2.18.24,8.277,8.277,0,0,0,3-.51,6.564,6.564,0,0,0,2.23-1.39,5.892,5.892,0,0,0,1.39-2.09,6.959,6.959,0,0,0,.48-2.59,4.567,4.567,0,0,0-.61-2.47,5.256,5.256,0,0,0-1.61-1.62,10.384,10.384,0,0,0-2.27-1.09q-1.27-.44-2.61-.86t-2.61-.94a9,9,0,0,1-2.27-1.33,6.087,6.087,0,0,1-1.61-2.02,6.7,6.7,0,0,1-.61-3.03,7.17,7.17,0,0,1,.54-2.74,6.815,6.815,0,0,1,1.58-2.33,7.762,7.762,0,0,1,2.57-1.62,9.365,9.365,0,0,1,3.49-.61,10.559,10.559,0,0,1,3.95.7,9.467,9.467,0,0,1,3.19,2.14Zm19.36,7.62a2.068,2.068,0,0,1-.19.17.4.4,0,0,1-.25.07,1.043,1.043,0,0,1-.55-.27,7.424,7.424,0,0,0-.93-.59,7.844,7.844,0,0,0-1.45-.59,7.184,7.184,0,0,0-2.11-.27,7.242,7.242,0,0,0-3.05.61,6.059,6.059,0,0,0-2.24,1.75,8.022,8.022,0,0,0-1.39,2.76,12.8,12.8,0,0,0-.48,3.64,12.864,12.864,0,0,0,.49,3.72,7.923,7.923,0,0,0,1.39,2.73,5.919,5.919,0,0,0,2.18,1.69,6.8,6.8,0,0,0,2.84.58,7.359,7.359,0,0,0,2.41-.34,7.854,7.854,0,0,0,1.6-.74,7.214,7.214,0,0,0,1-.74,1.034,1.034,0,0,1,.59-.34.459.459,0,0,1,.4.2l.52.64a5.817,5.817,0,0,1-1.16,1.12,7.866,7.866,0,0,1-1.58.9,9.687,9.687,0,0,1-1.91.59,10.74,10.74,0,0,1-2.15.21,8.532,8.532,0,0,1-3.47-.69,7.522,7.522,0,0,1-2.7-2,9.357,9.357,0,0,1-1.76-3.21,13.7,13.7,0,0,1-.63-4.32,13.632,13.632,0,0,1,.6-4.16,9.359,9.359,0,0,1,1.75-3.24,7.853,7.853,0,0,1,2.82-2.11,9.261,9.261,0,0,1,3.83-.75,9.02,9.02,0,0,1,3.45.62,8.456,8.456,0,0,1,2.63,1.68ZM-85.11,48V28.1h1a.705.705,0,0,1,.49.14.7.7,0,0,1,.17.48l.16,4.2a9.466,9.466,0,0,1,2.56-3.79,5.848,5.848,0,0,1,3.94-1.37,6.837,6.837,0,0,1,1.66.19,6.365,6.365,0,0,1,1.44.55l-.26,1.32a.362.362,0,0,1-.4.32,1.086,1.086,0,0,1-.34-.08q-.22-.08-.55-.18a6.57,6.57,0,0,0-.81-.18,6.748,6.748,0,0,0-1.1-.08,5.121,5.121,0,0,0-3.71,1.4,10.006,10.006,0,0,0-2.35,4.04V48Zm18.34-19.9V48h-1.9V28.1Zm.84-6.86a1.518,1.518,0,0,1-.15.67,2.01,2.01,0,0,1-.39.55,1.81,1.81,0,0,1-.56.38,1.678,1.678,0,0,1-.68.14,1.678,1.678,0,0,1-.68-.14,1.81,1.81,0,0,1-.56-.38,1.846,1.846,0,0,1-.38-.55,1.609,1.609,0,0,1-.14-.67,1.749,1.749,0,0,1,.14-.69,1.779,1.779,0,0,1,.38-.57,1.81,1.81,0,0,1,.56-.38,1.678,1.678,0,0,1,.68-.14,1.678,1.678,0,0,1,.68.14,1.81,1.81,0,0,1,.56.38,1.922,1.922,0,0,1,.39.57A1.649,1.649,0,0,1-65.93,21.24Zm6.2,33.8V28.1h1.04a.728.728,0,0,1,.42.11.485.485,0,0,1,.18.39l.18,3.08a10.545,10.545,0,0,1,3.09-2.86,7.578,7.578,0,0,1,3.97-1.06,6.922,6.922,0,0,1,5.72,2.54q2.04,2.54,2.04,7.62a14.032,14.032,0,0,1-.57,4.07,9.768,9.768,0,0,1-1.67,3.28,7.885,7.885,0,0,1-2.71,2.19,8.232,8.232,0,0,1-3.71.8,7.789,7.789,0,0,1-3.52-.74,7.158,7.158,0,0,1-2.56-2.2v9.72Zm8.34-25.74a6.522,6.522,0,0,0-3.59,1.03,9.906,9.906,0,0,0-2.85,2.87V43.64a6.813,6.813,0,0,0,2.53,2.42,6.952,6.952,0,0,0,3.17.7,6.983,6.983,0,0,0,3.08-.64,6.064,6.064,0,0,0,2.21-1.81,8.155,8.155,0,0,0,1.34-2.8,13.467,13.467,0,0,0,.45-3.59q0-4.44-1.63-6.53A5.616,5.616,0,0,0-51.39,29.3Zm18.5,19.02a4.28,4.28,0,0,1-3.15-1.12,4.689,4.689,0,0,1-1.13-3.46V30.14h-2.86a.534.534,0,0,1-.36-.12.423.423,0,0,1-.14-.34v-.74l3.4-.24.48-7.12a.55.55,0,0,1,.15-.32.455.455,0,0,1,.35-.14h.9v7.6h6.26v1.42h-6.26v13.5a4.216,4.216,0,0,0,.21,1.41,2.632,2.632,0,0,0,.58.97,2.274,2.274,0,0,0,.87.56,3.165,3.165,0,0,0,1.08.18,3.306,3.306,0,0,0,1.24-.21,5.14,5.14,0,0,0,.9-.46,5.771,5.771,0,0,0,.62-.46.681.681,0,0,1,.38-.21.434.434,0,0,1,.32.2l.52.84a5.546,5.546,0,0,1-1.93,1.35A6.02,6.02,0,0,1-32.89,48.32Zm15.12.58a1.157,1.157,0,0,1-.48.59,1.277,1.277,0,0,1-.66.19h-.78L-7.25,19.64a1.082,1.082,0,0,1,1.08-.74h.82ZM25.07,19.7v1.74H15.13V48H13.09V21.44h-10V19.7Zm4.68,34.7a1.363,1.363,0,0,1-.31.46.77.77,0,0,1-.55.18H27.53l3.5-7.78L22.61,28.1h1.58a.686.686,0,0,1,.47.15.964.964,0,0,1,.25.33l6.7,15.48q.12.3.21.61t.17.63q.1-.32.21-.63t.23-.61l6.62-15.48a.861.861,0,0,1,.28-.35.667.667,0,0,1,.4-.13h1.46Zm15.14.64V28.1h1.04a.728.728,0,0,1,.42.11.485.485,0,0,1,.18.39l.18,3.08a10.545,10.545,0,0,1,3.09-2.86,7.578,7.578,0,0,1,3.97-1.06,6.922,6.922,0,0,1,5.72,2.54q2.04,2.54,2.04,7.62a14.032,14.032,0,0,1-.57,4.07,9.768,9.768,0,0,1-1.67,3.28,7.885,7.885,0,0,1-2.71,2.19,8.232,8.232,0,0,1-3.71.8,7.789,7.789,0,0,1-3.52-.74,7.158,7.158,0,0,1-2.56-2.2v9.72ZM53.23,29.3a6.522,6.522,0,0,0-3.59,1.03,9.906,9.906,0,0,0-2.85,2.87V43.64a6.813,6.813,0,0,0,2.53,2.42,7.626,7.626,0,0,0,6.25.06,6.064,6.064,0,0,0,2.21-1.81,8.155,8.155,0,0,0,1.34-2.8,13.467,13.467,0,0,0,.45-3.59q0-4.44-1.63-6.53A5.616,5.616,0,0,0,53.23,29.3Zm20.56-1.52a8.2,8.2,0,0,1,3.11.58,6.989,6.989,0,0,1,2.48,1.69,7.794,7.794,0,0,1,1.64,2.73,10.837,10.837,0,0,1,.59,3.72,1,1,0,0,1-.13.6.5.5,0,0,1-.41.16H66.69v.38a13.5,13.5,0,0,0,.52,3.94,8.072,8.072,0,0,0,1.48,2.85,6.1,6.1,0,0,0,2.32,1.73,7.676,7.676,0,0,0,3.04.58,9.1,9.1,0,0,0,2.6-.33,9.69,9.69,0,0,0,1.85-.74,10.143,10.143,0,0,0,1.19-.74,1.35,1.35,0,0,1,.64-.33.459.459,0,0,1,.4.2l.52.64a5.427,5.427,0,0,1-1.27,1.12,9.064,9.064,0,0,1-1.76.89,12.823,12.823,0,0,1-2.08.59,11.444,11.444,0,0,1-2.23.22,9.463,9.463,0,0,1-3.72-.71,7.886,7.886,0,0,1-2.88-2.07,9.424,9.424,0,0,1-1.85-3.33,14.378,14.378,0,0,1-.65-4.51,12.3,12.3,0,0,1,.61-3.95,9.046,9.046,0,0,1,1.76-3.12A8.02,8.02,0,0,1,70,28.52,9.264,9.264,0,0,1,73.79,27.78Zm.02,1.42a7.489,7.489,0,0,0-2.76.48,6.039,6.039,0,0,0-2.11,1.38,7.04,7.04,0,0,0-1.44,2.16,9.833,9.833,0,0,0-.73,2.82H79.89a8.736,8.736,0,0,0-.44-2.87,6.136,6.136,0,0,0-1.24-2.15,5.367,5.367,0,0,0-1.92-1.35A6.348,6.348,0,0,0,73.81,29.2Zm27.56-6.06a.564.564,0,0,1-.52.34,1.151,1.151,0,0,1-.67-.37,8.59,8.59,0,0,0-2.86-1.65,8.78,8.78,0,0,0-5.3.06,5.655,5.655,0,0,0-1.96,1.2,5.107,5.107,0,0,0-1.2,1.76,5.482,5.482,0,0,0-.41,2.1,4.292,4.292,0,0,0,.61,2.38,5.5,5.5,0,0,0,1.61,1.6,10.419,10.419,0,0,0,2.27,1.11q1.27.45,2.61.89t2.61.97a9.41,9.41,0,0,1,2.27,1.33,6.1,6.1,0,0,1,1.61,1.97,6.248,6.248,0,0,1,.61,2.91,9.168,9.168,0,0,1-.61,3.35,7.817,7.817,0,0,1-1.77,2.73,8.31,8.31,0,0,1-2.84,1.83,10.3,10.3,0,0,1-3.84.67,10.851,10.851,0,0,1-4.82-.99,11.357,11.357,0,0,1-3.54-2.71l.56-.88a.7.7,0,0,1,.56-.3.8.8,0,0,1,.46.24q.28.24.68.59t.96.76a7.952,7.952,0,0,0,1.3.76,9.2,9.2,0,0,0,1.7.59,9.015,9.015,0,0,0,2.18.24,8.277,8.277,0,0,0,3-.51,6.564,6.564,0,0,0,2.23-1.39,5.892,5.892,0,0,0,1.39-2.09,6.959,6.959,0,0,0,.48-2.59,4.567,4.567,0,0,0-.61-2.47,5.256,5.256,0,0,0-1.61-1.62,10.384,10.384,0,0,0-2.27-1.09q-1.27-.44-2.61-.86t-2.61-.94a9,9,0,0,1-2.27-1.33,6.087,6.087,0,0,1-1.61-2.02,6.7,6.7,0,0,1-.61-3.03,7.17,7.17,0,0,1,.54-2.74,6.815,6.815,0,0,1,1.58-2.33,7.762,7.762,0,0,1,2.57-1.62,9.365,9.365,0,0,1,3.49-.61,10.559,10.559,0,0,1,3.95.7,9.467,9.467,0,0,1,3.19,2.14Zm19.36,7.62a2.068,2.068,0,0,1-.19.17.4.4,0,0,1-.25.07,1.043,1.043,0,0,1-.55-.27,7.424,7.424,0,0,0-.93-.59,7.844,7.844,0,0,0-1.45-.59,8.106,8.106,0,0,0-5.16.34,6.059,6.059,0,0,0-2.24,1.75,8.022,8.022,0,0,0-1.39,2.76,14.2,14.2,0,0,0,.01,7.36,7.923,7.923,0,0,0,1.39,2.73,5.919,5.919,0,0,0,2.18,1.69,6.8,6.8,0,0,0,2.84.58,7.359,7.359,0,0,0,2.41-.34,7.854,7.854,0,0,0,1.6-.74,7.214,7.214,0,0,0,1-.74,1.034,1.034,0,0,1,.59-.34.459.459,0,0,1,.4.2l.52.64a5.817,5.817,0,0,1-1.16,1.12,7.866,7.866,0,0,1-1.58.9,9.687,9.687,0,0,1-1.91.59,10.74,10.74,0,0,1-2.15.21,8.532,8.532,0,0,1-3.47-.69,7.522,7.522,0,0,1-2.7-2,9.357,9.357,0,0,1-1.76-3.21,14.925,14.925,0,0,1-.03-8.48,9.359,9.359,0,0,1,1.75-3.24,7.853,7.853,0,0,1,2.82-2.11,9.261,9.261,0,0,1,3.83-.75,9.02,9.02,0,0,1,3.45.62,8.456,8.456,0,0,1,2.63,1.68ZM125.83,48V28.1h1a.705.705,0,0,1,.49.14.7.7,0,0,1,.17.48l.16,4.2a9.466,9.466,0,0,1,2.56-3.79,5.848,5.848,0,0,1,3.94-1.37,6.837,6.837,0,0,1,1.66.19,6.365,6.365,0,0,1,1.44.55l-.26,1.32a.362.362,0,0,1-.4.32,1.087,1.087,0,0,1-.34-.08q-.22-.08-.55-.18a6.57,6.57,0,0,0-.81-.18,6.748,6.748,0,0,0-1.1-.08,5.121,5.121,0,0,0-3.71,1.4,10.006,10.006,0,0,0-2.35,4.04V48Zm18.34-19.9V48h-1.9V28.1Zm.84-6.86a1.518,1.518,0,0,1-.15.67,2.009,2.009,0,0,1-.39.55,1.81,1.81,0,0,1-.56.38,1.721,1.721,0,0,1-1.36,0,1.809,1.809,0,0,1-.56-.38,1.846,1.846,0,0,1-.38-.55,1.609,1.609,0,0,1-.14-.67,1.749,1.749,0,0,1,.14-.69,1.779,1.779,0,0,1,.38-.57,1.809,1.809,0,0,1,.56-.38,1.721,1.721,0,0,1,1.36,0,1.81,1.81,0,0,1,.56.38,1.921,1.921,0,0,1,.39.57A1.649,1.649,0,0,1,145.01,21.24Zm6.2,33.8V28.1h1.04a.728.728,0,0,1,.42.11.485.485,0,0,1,.18.39l.18,3.08a10.545,10.545,0,0,1,3.09-2.86,7.578,7.578,0,0,1,3.97-1.06,6.922,6.922,0,0,1,5.72,2.54q2.04,2.54,2.04,7.62a14.032,14.032,0,0,1-.57,4.07,9.768,9.768,0,0,1-1.67,3.28,7.885,7.885,0,0,1-2.71,2.19,8.232,8.232,0,0,1-3.71.8,7.789,7.789,0,0,1-3.52-.74,7.158,7.158,0,0,1-2.56-2.2v9.72Zm8.34-25.74a6.522,6.522,0,0,0-3.59,1.03,9.906,9.906,0,0,0-2.85,2.87V43.64a6.813,6.813,0,0,0,2.53,2.42,7.626,7.626,0,0,0,6.25.06,6.064,6.064,0,0,0,2.21-1.81,8.155,8.155,0,0,0,1.34-2.8,13.467,13.467,0,0,0,.45-3.59q0-4.44-1.63-6.53A5.616,5.616,0,0,0,159.55,29.3Zm18.5,19.02a4.28,4.28,0,0,1-3.15-1.12,4.689,4.689,0,0,1-1.13-3.46V30.14h-2.86a.534.534,0,0,1-.36-.12.423.423,0,0,1-.14-.34v-.74l3.4-.24.48-7.12a.55.55,0,0,1,.15-.32.454.454,0,0,1,.35-.14h.9v7.6h6.26v1.42h-6.26v13.5a4.216,4.216,0,0,0,.21,1.41,2.632,2.632,0,0,0,.58.97,2.274,2.274,0,0,0,.87.56,3.165,3.165,0,0,0,1.08.18,3.306,3.306,0,0,0,1.24-.21,5.14,5.14,0,0,0,.9-.46,5.771,5.771,0,0,0,.62-.46.681.681,0,0,1,.38-.21.434.434,0,0,1,.32.2l.52.84a5.546,5.546,0,0,1-1.93,1.35A6.02,6.02,0,0,1,178.05,48.32Zm41.32-14.48a16.746,16.746,0,0,1-.98,5.9,12.74,12.74,0,0,1-2.76,4.46,11.962,11.962,0,0,1-4.26,2.82,14.846,14.846,0,0,1-5.5.98H195.55V19.7h10.32a14.846,14.846,0,0,1,5.5.98,11.962,11.962,0,0,1,4.26,2.82,12.74,12.74,0,0,1,2.76,4.46A16.684,16.684,0,0,1,219.37,33.84Zm-2.12,0a15.792,15.792,0,0,0-.82-5.28,11.087,11.087,0,0,0-2.31-3.92,9.818,9.818,0,0,0-3.59-2.44,12.444,12.444,0,0,0-4.66-.84h-8.26V46.34h8.26a12.444,12.444,0,0,0,4.66-.84,9.818,9.818,0,0,0,3.59-2.44,11.087,11.087,0,0,0,2.31-3.92A15.858,15.858,0,0,0,217.25,33.84Zm15.24-6.06a8.2,8.2,0,0,1,3.11.58,6.989,6.989,0,0,1,2.48,1.69,7.794,7.794,0,0,1,1.64,2.73,10.837,10.837,0,0,1,.59,3.72,1,1,0,0,1-.13.6.5.5,0,0,1-.41.16H225.39v.38a13.5,13.5,0,0,0,.52,3.94,8.072,8.072,0,0,0,1.48,2.85,6.1,6.1,0,0,0,2.32,1.73,7.676,7.676,0,0,0,3.04.58,9.1,9.1,0,0,0,2.6-.33,9.69,9.69,0,0,0,1.85-.74,10.143,10.143,0,0,0,1.19-.74,1.35,1.35,0,0,1,.64-.33.459.459,0,0,1,.4.2l.52.64a5.427,5.427,0,0,1-1.27,1.12,9.064,9.064,0,0,1-1.76.89,12.823,12.823,0,0,1-2.08.59,11.444,11.444,0,0,1-2.23.22,9.463,9.463,0,0,1-3.72-.71,7.886,7.886,0,0,1-2.88-2.07,9.424,9.424,0,0,1-1.85-3.33,14.378,14.378,0,0,1-.65-4.51,12.3,12.3,0,0,1,.61-3.95,9.045,9.045,0,0,1,1.76-3.12,8.02,8.02,0,0,1,2.82-2.05A9.264,9.264,0,0,1,232.49,27.78Zm.02,1.42a7.489,7.489,0,0,0-2.76.48,6.039,6.039,0,0,0-2.11,1.38,7.039,7.039,0,0,0-1.44,2.16,9.833,9.833,0,0,0-.73,2.82h13.12a8.736,8.736,0,0,0-.44-2.87,6.136,6.136,0,0,0-1.24-2.15,5.368,5.368,0,0,0-1.92-1.35A6.348,6.348,0,0,0,232.51,29.2ZM252.41,48h-1.68l-8.4-19.9h1.5a.655.655,0,0,1,.45.15.964.964,0,0,1,.25.33l6.56,15.7a5.289,5.289,0,0,1,.3.88l.2.84q.1-.42.21-.85a6.655,6.655,0,0,1,.29-.87l6.6-15.7a.9.9,0,0,1,.27-.35.655.655,0,0,1,.41-.13h1.44Zm19.28-20.22a8.2,8.2,0,0,1,3.11.58,6.988,6.988,0,0,1,2.48,1.69,7.794,7.794,0,0,1,1.64,2.73,10.836,10.836,0,0,1,.59,3.72,1,1,0,0,1-.13.6.5.5,0,0,1-.41.16H264.59v.38a13.5,13.5,0,0,0,.52,3.94,8.072,8.072,0,0,0,1.48,2.85,6.1,6.1,0,0,0,2.32,1.73,7.676,7.676,0,0,0,3.04.58,9.1,9.1,0,0,0,2.6-.33,9.69,9.69,0,0,0,1.85-.74,10.143,10.143,0,0,0,1.19-.74,1.349,1.349,0,0,1,.64-.33.459.459,0,0,1,.4.2l.52.64a5.427,5.427,0,0,1-1.27,1.12,9.063,9.063,0,0,1-1.76.89,12.823,12.823,0,0,1-2.08.59,11.444,11.444,0,0,1-2.23.22,9.463,9.463,0,0,1-3.72-.71,7.885,7.885,0,0,1-2.88-2.07,9.423,9.423,0,0,1-1.85-3.33,14.379,14.379,0,0,1-.65-4.51,12.3,12.3,0,0,1,.61-3.95,9.046,9.046,0,0,1,1.76-3.12,8.02,8.02,0,0,1,2.82-2.05A9.264,9.264,0,0,1,271.69,27.78Zm.02,1.42a7.489,7.489,0,0,0-2.76.48,6.039,6.039,0,0,0-2.11,1.38,7.039,7.039,0,0,0-1.44,2.16,9.833,9.833,0,0,0-.73,2.82h13.12a8.736,8.736,0,0,0-.44-2.87,6.136,6.136,0,0,0-1.24-2.15,5.368,5.368,0,0,0-1.92-1.35A6.348,6.348,0,0,0,271.71,29.2Zm15.38-10.3V48h-1.9V18.9Zm14.62,8.88a9.571,9.571,0,0,1,3.83.73,7.806,7.806,0,0,1,2.85,2.07,9.17,9.17,0,0,1,1.77,3.23,14.936,14.936,0,0,1,0,8.45,9.182,9.182,0,0,1-1.77,3.22,7.707,7.707,0,0,1-2.85,2.06,10.547,10.547,0,0,1-7.66,0,7.8,7.8,0,0,1-2.86-2.06,9.1,9.1,0,0,1-1.78-3.22,14.936,14.936,0,0,1,0-8.45,9.084,9.084,0,0,1,1.78-3.23,7.9,7.9,0,0,1,2.86-2.07A9.571,9.571,0,0,1,301.71,27.78Zm0,18.98a7.4,7.4,0,0,0,3.11-.61,5.888,5.888,0,0,0,2.22-1.75,7.718,7.718,0,0,0,1.33-2.75,14.988,14.988,0,0,0,0-7.21,7.816,7.816,0,0,0-1.33-2.77,5.938,5.938,0,0,0-2.22-1.77,8.11,8.11,0,0,0-6.22,0,5.939,5.939,0,0,0-2.22,1.77,7.945,7.945,0,0,0-1.34,2.77,14.666,14.666,0,0,0,0,7.21,7.845,7.845,0,0,0,1.34,2.75,5.888,5.888,0,0,0,2.22,1.75A7.4,7.4,0,0,0,301.71,46.76Zm14.06,8.28V28.1h1.04a.728.728,0,0,1,.42.11.485.485,0,0,1,.18.39l.18,3.08a10.545,10.545,0,0,1,3.09-2.86,7.578,7.578,0,0,1,3.97-1.06,6.922,6.922,0,0,1,5.72,2.54q2.04,2.54,2.04,7.62a14.032,14.032,0,0,1-.57,4.07,9.769,9.769,0,0,1-1.67,3.28,7.885,7.885,0,0,1-2.71,2.19,8.232,8.232,0,0,1-3.71.8,7.789,7.789,0,0,1-3.52-.74,7.158,7.158,0,0,1-2.56-2.2v9.72Zm8.34-25.74a6.522,6.522,0,0,0-3.59,1.03,9.906,9.906,0,0,0-2.85,2.87V43.64a6.813,6.813,0,0,0,2.53,2.42,7.626,7.626,0,0,0,6.25.06,6.064,6.064,0,0,0,2.21-1.81,8.155,8.155,0,0,0,1.34-2.8,13.466,13.466,0,0,0,.45-3.59q0-4.44-1.63-6.53A5.616,5.616,0,0,0,324.11,29.3Zm20.56-1.52a8.2,8.2,0,0,1,3.11.58,6.988,6.988,0,0,1,2.48,1.69,7.794,7.794,0,0,1,1.64,2.73,10.836,10.836,0,0,1,.59,3.72,1,1,0,0,1-.13.6.5.5,0,0,1-.41.16H337.57v.38a13.5,13.5,0,0,0,.52,3.94,8.072,8.072,0,0,0,1.48,2.85,6.1,6.1,0,0,0,2.32,1.73,7.676,7.676,0,0,0,3.04.58,9.1,9.1,0,0,0,2.6-.33,9.69,9.69,0,0,0,1.85-.74,10.143,10.143,0,0,0,1.19-.74,1.349,1.349,0,0,1,.64-.33.459.459,0,0,1,.4.2l.52.64a5.427,5.427,0,0,1-1.27,1.12,9.063,9.063,0,0,1-1.76.89,12.823,12.823,0,0,1-2.08.59,11.444,11.444,0,0,1-2.23.22,9.463,9.463,0,0,1-3.72-.71,7.885,7.885,0,0,1-2.88-2.07,9.423,9.423,0,0,1-1.85-3.33,14.379,14.379,0,0,1-.65-4.51,12.3,12.3,0,0,1,.61-3.95,9.046,9.046,0,0,1,1.76-3.12,8.02,8.02,0,0,1,2.82-2.05A9.264,9.264,0,0,1,344.67,27.78Zm.02,1.42a7.489,7.489,0,0,0-2.76.48,6.039,6.039,0,0,0-2.11,1.38,7.039,7.039,0,0,0-1.44,2.16,9.833,9.833,0,0,0-.73,2.82h13.12a8.736,8.736,0,0,0-.44-2.87,6.136,6.136,0,0,0-1.24-2.15,5.368,5.368,0,0,0-1.92-1.35A6.348,6.348,0,0,0,344.69,29.2ZM357.61,48V28.1h1a.706.706,0,0,1,.49.14.7.7,0,0,1,.17.48l.16,4.2a9.465,9.465,0,0,1,2.56-3.79,5.848,5.848,0,0,1,3.94-1.37,6.837,6.837,0,0,1,1.66.19,6.364,6.364,0,0,1,1.44.55l-.26,1.32a.362.362,0,0,1-.4.32,1.087,1.087,0,0,1-.34-.08q-.22-.08-.55-.18a6.57,6.57,0,0,0-.81-.18,6.748,6.748,0,0,0-1.1-.08,5.121,5.121,0,0,0-3.71,1.4,10.007,10.007,0,0,0-2.35,4.04V48Zm12.24-1.54a1.873,1.873,0,0,1,.14-.72,1.787,1.787,0,0,1,.39-.59,1.959,1.959,0,0,1,.58-.4,1.744,1.744,0,0,1,.73-.15,1.764,1.764,0,0,1,.72.15,1.891,1.891,0,0,1,.99.99,1.764,1.764,0,0,1,.15.72,1.744,1.744,0,0,1-.15.73,1.959,1.959,0,0,1-.4.58,1.786,1.786,0,0,1-.59.39,1.872,1.872,0,0,1-.72.14,1.81,1.81,0,0,1-1.84-1.84Z" transform="translate(371.45 29.1)" fill="#f1f2ef"/></svg>