<svg xmlns="http://www.w3.org/2000/svg" width="257.8" height="149" viewBox="0 0 257.8 149"><path d="M14.4-143.2H66.6a53.992,53.992,0,0,1,19.6,3.4,45.253,45.253,0,0,1,15.1,9.4,40.905,40.905,0,0,1,9.7,14.3A47.294,47.294,0,0,1,114.4-98,37.6,37.6,0,0,1,112-84.5a40.454,40.454,0,0,1-6.6,11.4,48.576,48.576,0,0,1-9.8,9A49.626,49.626,0,0,1,83.8-58l-.2,1.4L122-1.6V0H91L54-53.8H41.4V0h-27Zm52,64.6q9.2,0,15.1-5.6a18.735,18.735,0,0,0,5.9-14.2,21.628,21.628,0,0,0-1.3-7.4,18.59,18.59,0,0,0-3.9-6.4,19.2,19.2,0,0,0-6.5-4.5,22.076,22.076,0,0,0-8.9-1.7H41.4v39.8Zm83.4-33.6a16.641,16.641,0,0,1-6.5-1.3,16.666,16.666,0,0,1-5.4-3.6,16.969,16.969,0,0,1-3.6-5.3A16.424,16.424,0,0,1,133-129a16.424,16.424,0,0,1,1.3-6.6,16.969,16.969,0,0,1,3.6-5.3,16.666,16.666,0,0,1,5.4-3.6,16.641,16.641,0,0,1,6.5-1.3,16.534,16.534,0,0,1,12,4.9,16.039,16.039,0,0,1,5,11.9,16.039,16.039,0,0,1-5,11.9A16.534,16.534,0,0,1,149.8-112.2ZM136.8,0V-98H163V0ZM246.4-10.4h-1.6A44.2,44.2,0,0,1,233.7-.8q-6.5,4-16.7,4A40.571,40.571,0,0,1,202.7.7,37.2,37.2,0,0,1,191-6.2a30.86,30.86,0,0,1-7.8-10.6,32.659,32.659,0,0,1-2.8-13.6,30.628,30.628,0,0,1,3-13.7,31.157,31.157,0,0,1,8.4-10.5,37.892,37.892,0,0,1,12.7-6.7,52.67,52.67,0,0,1,15.9-2.3,68.913,68.913,0,0,1,15.8,1.5A76.63,76.63,0,0,1,246.4-59v-3a16,16,0,0,0-6.2-12.9Q234-80,224.8-80q-13.6,0-23,11.4l-19-13q15.6-19.6,42.6-19.6,22.8,0,34.8,10.7t12,31.7V0H246.4Zm0-29.4a54.166,54.166,0,0,0-9.5-3.5,41.647,41.647,0,0,0-10.7-1.3q-9.4,0-14.5,4.1a12.5,12.5,0,0,0-5.1,10.1,11.329,11.329,0,0,0,4.9,9.6,18.582,18.582,0,0,0,11.3,3.6,23.957,23.957,0,0,0,9.6-1.9,23.828,23.828,0,0,0,7.5-5,21.988,21.988,0,0,0,4.8-7.2A21.985,21.985,0,0,0,246.4-39.8Z" transform="translate(-14.4 145.8)" fill="#f1f2ef"/></svg>